<?xml version="1.0" encoding="utf-8"?>
<!-- Generator: Adobe Illustrator 23.0.1, SVG Export Plug-In . SVG Version: 6.00 Build 0)  -->
<svg version="1.1" id="Layer_1" xmlns="http://www.w3.org/2000/svg" xmlns:xlink="http://www.w3.org/1999/xlink" x="0px" y="0px"
	 viewBox="0 0 512 512" style="enable-background:new 0 0 512 512;" xml:space="preserve">
<style type="text/css">
	.st0{fill-rule:evenodd;clip-rule:evenodd;fill:#1B1B1B;}
</style>
<path class="st0" d="M428.1,398.6c-2.9,4.7-8.2,7.4-14.6,7.4H313.3c-4.1,28.2-28.1,50-57.3,50c-29.2,0-53.2-21.8-57.3-50H98.5
	c-6.4,0-11.7-2.7-14.6-7.4c-2.9-4.7-2.9-10.7-0.1-16.4l47.7-103V181c0-68.9,55.8-125,124.5-125c68.7,0,124.5,56.1,124.5,125v98.2
	l47.8,103.2C431,387.9,431,393.9,428.1,398.6z M256,439.3c20,0,36.8-14.3,40.7-33.3h-81.3C219.2,425,235.9,439.3,256,439.3z
	 M364.7,284.5c0,0,0-0.1,0-0.1c-0.2-0.5-0.2-1-0.4-1.6c-0.1-0.6-0.3-1.1-0.3-1.7c0,0,0-0.1,0-0.1V181c0-59.7-48.4-108.3-107.9-108.3
	c-59.5,0-107.9,48.6-107.9,108.3v100c0,0.1,0,0.1,0,0.1c0,0.6-0.2,1.1-0.3,1.7c-0.1,0.5-0.2,1.1-0.4,1.6c0,0,0,0.1,0,0.1L98.8,389.3
	h314.4L364.7,284.5z"/>
</svg>
